<mxfile host="app.diagrams.net" modified="2024-01-23T09:57:31.080Z" agent="Mozilla/5.0 (Macintosh; Intel Mac OS X 10_15_7) AppleWebKit/537.36 (KHTML, like Gecko) Chrome/120.0.0.0 Safari/537.36" etag="7GIcp3fx_bjrKKTrqqhk" version="22.1.21" type="github">
  <diagram name="第 1 页" id="yFd4o9M5fK2ybXkod_yD">
    <mxGraphModel dx="1674" dy="786" grid="1" gridSize="10" guides="1" tooltips="1" connect="1" arrows="1" fold="1" page="1" pageScale="1" pageWidth="827" pageHeight="1169" math="0" shadow="0">
      <root>
        <mxCell id="0" />
        <mxCell id="1" parent="0" />
        <mxCell id="vtGkL0rIUugRBvW6WAvD-8" value="" style="edgeStyle=orthogonalEdgeStyle;rounded=0;orthogonalLoop=1;jettySize=auto;html=1;" edge="1" parent="1" source="vtGkL0rIUugRBvW6WAvD-1" target="vtGkL0rIUugRBvW6WAvD-5">
          <mxGeometry relative="1" as="geometry" />
        </mxCell>
        <mxCell id="vtGkL0rIUugRBvW6WAvD-9" value="在POINT_10之前调用" style="edgeLabel;html=1;align=center;verticalAlign=middle;resizable=0;points=[];" vertex="1" connectable="0" parent="vtGkL0rIUugRBvW6WAvD-8">
          <mxGeometry x="-0.2375" y="4" relative="1" as="geometry">
            <mxPoint as="offset" />
          </mxGeometry>
        </mxCell>
        <mxCell id="vtGkL0rIUugRBvW6WAvD-1" value="NewNoteItemChildController" style="swimlane;fontStyle=1;align=center;verticalAlign=top;childLayout=stackLayout;horizontal=1;startSize=26;horizontalStack=0;resizeParent=1;resizeParentMax=0;resizeLast=0;collapsible=1;marginBottom=0;whiteSpace=wrap;html=1;" vertex="1" parent="1">
          <mxGeometry x="30" y="80" width="180" height="90" as="geometry" />
        </mxCell>
        <mxCell id="vtGkL0rIUugRBvW6WAvD-3" value="" style="line;strokeWidth=1;fillColor=none;align=left;verticalAlign=middle;spacingTop=-1;spacingLeft=3;spacingRight=3;rotatable=0;labelPosition=right;points=[];portConstraint=eastwest;strokeColor=inherit;" vertex="1" parent="vtGkL0rIUugRBvW6WAvD-1">
          <mxGeometry y="26" width="180" height="8" as="geometry" />
        </mxCell>
        <mxCell id="vtGkL0rIUugRBvW6WAvD-4" value="# onAttach()&lt;br&gt;-----------&amp;gt;&lt;br&gt;- bindSubjectView()" style="text;strokeColor=none;fillColor=none;align=left;verticalAlign=top;spacingLeft=4;spacingRight=4;overflow=hidden;rotatable=0;points=[[0,0.5],[1,0.5]];portConstraint=eastwest;whiteSpace=wrap;html=1;" vertex="1" parent="vtGkL0rIUugRBvW6WAvD-1">
          <mxGeometry y="34" width="180" height="56" as="geometry" />
        </mxCell>
        <mxCell id="vtGkL0rIUugRBvW6WAvD-13" value="" style="edgeStyle=orthogonalEdgeStyle;rounded=0;orthogonalLoop=1;jettySize=auto;html=1;" edge="1" parent="1" source="vtGkL0rIUugRBvW6WAvD-5" target="vtGkL0rIUugRBvW6WAvD-10">
          <mxGeometry relative="1" as="geometry" />
        </mxCell>
        <mxCell id="vtGkL0rIUugRBvW6WAvD-5" value="NewNoteItemChildPresenter" style="swimlane;fontStyle=1;align=center;verticalAlign=top;childLayout=stackLayout;horizontal=1;startSize=26;horizontalStack=0;resizeParent=1;resizeParentMax=0;resizeLast=0;collapsible=1;marginBottom=0;whiteSpace=wrap;html=1;" vertex="1" parent="1">
          <mxGeometry x="370" y="65" width="180" height="120" as="geometry" />
        </mxCell>
        <mxCell id="vtGkL0rIUugRBvW6WAvD-6" value="" style="line;strokeWidth=1;fillColor=none;align=left;verticalAlign=middle;spacingTop=-1;spacingLeft=3;spacingRight=3;rotatable=0;labelPosition=right;points=[];portConstraint=eastwest;strokeColor=inherit;" vertex="1" parent="vtGkL0rIUugRBvW6WAvD-5">
          <mxGeometry y="26" width="180" height="8" as="geometry" />
        </mxCell>
        <mxCell id="vtGkL0rIUugRBvW6WAvD-7" value="# bindView()&lt;br&gt;-----------&amp;gt;&lt;br&gt;- bindNoteCover()&lt;br&gt;-----------&amp;gt;&lt;br&gt;- loadImage()" style="text;strokeColor=none;fillColor=none;align=left;verticalAlign=top;spacingLeft=4;spacingRight=4;overflow=hidden;rotatable=0;points=[[0,0.5],[1,0.5]];portConstraint=eastwest;whiteSpace=wrap;html=1;" vertex="1" parent="vtGkL0rIUugRBvW6WAvD-5">
          <mxGeometry y="34" width="180" height="86" as="geometry" />
        </mxCell>
        <mxCell id="vtGkL0rIUugRBvW6WAvD-17" value="" style="edgeStyle=orthogonalEdgeStyle;rounded=0;orthogonalLoop=1;jettySize=auto;html=1;" edge="1" parent="1" source="vtGkL0rIUugRBvW6WAvD-10" target="vtGkL0rIUugRBvW6WAvD-14">
          <mxGeometry relative="1" as="geometry" />
        </mxCell>
        <mxCell id="vtGkL0rIUugRBvW6WAvD-10" value="FistScreenHelperV2" style="swimlane;fontStyle=1;align=center;verticalAlign=top;childLayout=stackLayout;horizontal=1;startSize=26;horizontalStack=0;resizeParent=1;resizeParentMax=0;resizeLast=0;collapsible=1;marginBottom=0;whiteSpace=wrap;html=1;" vertex="1" parent="1">
          <mxGeometry x="630" y="90" width="180" height="70" as="geometry" />
        </mxCell>
        <mxCell id="vtGkL0rIUugRBvW6WAvD-11" value="" style="line;strokeWidth=1;fillColor=none;align=left;verticalAlign=middle;spacingTop=-1;spacingLeft=3;spacingRight=3;rotatable=0;labelPosition=right;points=[];portConstraint=eastwest;strokeColor=inherit;" vertex="1" parent="vtGkL0rIUugRBvW6WAvD-10">
          <mxGeometry y="26" width="180" height="8" as="geometry" />
        </mxCell>
        <mxCell id="vtGkL0rIUugRBvW6WAvD-12" value="# addMolecularM():已经加载成功的首屏图片" style="text;strokeColor=none;fillColor=none;align=left;verticalAlign=top;spacingLeft=4;spacingRight=4;overflow=hidden;rotatable=0;points=[[0,0.5],[1,0.5]];portConstraint=eastwest;whiteSpace=wrap;html=1;" vertex="1" parent="vtGkL0rIUugRBvW6WAvD-10">
          <mxGeometry y="34" width="180" height="36" as="geometry" />
        </mxCell>
        <mxCell id="vtGkL0rIUugRBvW6WAvD-14" value="CostTrackHelper" style="swimlane;fontStyle=1;align=center;verticalAlign=top;childLayout=stackLayout;horizontal=1;startSize=26;horizontalStack=0;resizeParent=1;resizeParentMax=0;resizeLast=0;collapsible=1;marginBottom=0;whiteSpace=wrap;html=1;" vertex="1" parent="1">
          <mxGeometry x="630" y="240" width="180" height="70" as="geometry">
            <mxRectangle x="630" y="240" width="140" height="30" as="alternateBounds" />
          </mxGeometry>
        </mxCell>
        <mxCell id="vtGkL0rIUugRBvW6WAvD-15" value="" style="line;strokeWidth=1;fillColor=none;align=left;verticalAlign=middle;spacingTop=-1;spacingLeft=3;spacingRight=3;rotatable=0;labelPosition=right;points=[];portConstraint=eastwest;strokeColor=inherit;" vertex="1" parent="vtGkL0rIUugRBvW6WAvD-14">
          <mxGeometry y="26" width="180" height="8" as="geometry" />
        </mxCell>
        <mxCell id="vtGkL0rIUugRBvW6WAvD-16" value="# setStageById()" style="text;strokeColor=none;fillColor=none;align=left;verticalAlign=top;spacingLeft=4;spacingRight=4;overflow=hidden;rotatable=0;points=[[0,0.5],[1,0.5]];portConstraint=eastwest;whiteSpace=wrap;html=1;" vertex="1" parent="vtGkL0rIUugRBvW6WAvD-14">
          <mxGeometry y="34" width="180" height="36" as="geometry" />
        </mxCell>
      </root>
    </mxGraphModel>
  </diagram>
</mxfile>
